<svg xmlns="http://www.w3.org/2000/svg" viewBox="0 0 512 512">
    <animateTransform attributeType="XML" attributeName="transform" type="translate" values="0 0; 0 -3; 0 0" keyTimes="0; 0.5; 1" dur="1.5s" 
    begin="0.5s" repeatCount="indefinite" accumulate="sum" />
    <animateTransform attributeType="XML" attributeName="transform" type="rotate" values="0 10 10; 2 10 10; 0 10 10; -2 10 10; 0 10 10" dur="1.5s"
    begin="0.5s" repeatCount="indefinite" additive="sum" />
    <path d="M 0 255.902 L 0 353 24.500 353 L 49 353 49 320 L 49 287 66.750 286.845 C 85.250 286.683, 91.125 286.441, 95.747 285.650 C 97.261 285.391, 100.419 284.855, 102.764 284.459 C 106.281 283.866, 107.130 283.282, 107.618 281.120 C 108.189 278.583, 113.089 263.552, 125.909 225 C 129.292 214.825, 132.285 205.237, 132.560 203.694 C 132.835 202.150, 134.155 197.976, 135.495 194.417 C 137.384 189.398, 137.712 187.372, 136.956 185.384 C 135.759 182.237, 125.595 171.938, 121.500 169.723 C 113.970 165.651, 109.034 163.531, 104.500 162.421 C 102.850 162.018, 101.050 161.575, 100.500 161.439 C 99.950 161.302, 98.150 160.863, 96.500 160.463 C 94.850 160.062, 72.463 159.525, 46.750 159.269 L 0 158.803 0 255.902 M 438.479 160.500 C 438.116 161.600, 437.349 163.625, 436.776 165 C 436.202 166.375, 435.388 168.400, 434.968 169.500 C 434.548 170.600, 433.524 173.075, 432.693 175 C 431.862 176.925, 429.758 182.325, 428.018 187 C 426.278 191.675, 424.377 196.625, 423.793 198 C 423.210 199.375, 422.343 201.512, 421.866 202.750 C 421.390 203.988, 420.550 206.125, 420 207.500 C 419.450 208.875, 418.596 211.012, 418.102 212.250 C 417.608 213.488, 416.434 216.247, 415.493 218.382 C 413.635 222.596, 413.889 226.742, 416.341 232.199 C 417.157 234.015, 418.598 237.975, 419.544 241 C 420.491 244.025, 421.576 246.950, 421.957 247.500 C 422.338 248.050, 423.221 250.525, 423.920 253 C 424.618 255.475, 425.782 258.850, 426.507 260.500 C 427.231 262.150, 428.594 265.975, 429.535 269 C 430.476 272.025, 431.641 274.928, 432.123 275.450 C 432.605 275.973, 433 277.201, 433 278.180 C 433 279.820, 431.378 279.981, 412.288 280.230 L 391.575 280.500 390.384 283 C 389.082 285.731, 387.150 290.359, 386 293.500 C 385.103 295.950, 383.691 299.381, 381.680 304 C 380.842 305.925, 379.227 309.863, 378.093 312.750 L 376.029 318 410.856 318 L 445.683 318 446.945 322.250 C 447.639 324.588, 448.566 326.950, 449.006 327.500 C 449.445 328.050, 450.331 330.468, 450.974 332.874 C 451.618 335.280, 452.641 338.430, 453.249 339.874 C 453.857 341.318, 455.077 344.750, 455.962 347.500 L 457.570 352.500 484.785 352.766 C 511.225 353.025, 512 352.976, 512 351.075 C 512 349.999, 511.550 348.840, 511 348.500 C 510.450 348.160, 509.997 347.121, 509.994 346.191 C 509.990 345.261, 509.358 343.293, 508.588 341.817 C 507.818 340.342, 506.886 337.760, 506.517 336.079 C 506.148 334.398, 505.431 332.766, 504.923 332.452 C 504.415 332.139, 503.997 331.121, 503.994 330.191 C 503.990 329.261, 503.315 327.211, 502.494 325.636 C 501.672 324.060, 501 322.328, 501 321.787 C 501 321.245, 500.378 319.384, 499.618 317.651 C 498.858 315.918, 496.080 308.650, 493.445 301.500 C 490.810 294.350, 488.282 288.072, 487.827 287.550 C 487.372 287.027, 486.997 285.902, 486.994 285.050 C 486.990 284.197, 486.358 282.293, 485.588 280.817 C 484.818 279.342, 483.886 276.760, 483.517 275.079 C 483.148 273.398, 482.431 271.766, 481.923 271.452 C 481.415 271.139, 480.997 270.121, 480.994 269.191 C 480.990 268.261, 480.315 266.211, 479.494 264.636 C 478.672 263.060, 477.997 261.260, 477.994 260.636 C 477.990 260.011, 477.358 258.293, 476.588 256.817 C 475.818 255.342, 474.886 252.760, 474.517 251.079 C 474.148 249.398, 473.431 247.766, 472.923 247.452 C 472.415 247.139, 472 246.189, 472 245.342 C 472 244.495, 471.365 242.384, 470.588 240.651 C 469.812 238.918, 467.039 231.650, 464.427 224.500 C 461.815 217.350, 459.300 211.073, 458.839 210.550 C 458.377 210.028, 457.997 208.903, 457.994 208.050 C 457.990 207.198, 457.358 205.293, 456.588 203.817 C 455.818 202.342, 454.886 199.760, 454.517 198.079 C 454.148 196.398, 453.431 194.766, 452.923 194.452 C 452.415 194.139, 451.997 193.121, 451.994 192.191 C 451.990 191.261, 451.358 189.293, 450.588 187.817 C 449.818 186.342, 448.886 183.760, 448.517 182.079 C 448.148 180.398, 447.431 178.766, 446.923 178.452 C 446.415 178.139, 445.997 177.121, 445.994 176.191 C 445.990 175.261, 445.315 173.211, 444.494 171.636 C 443.672 170.060, 442.985 168.260, 442.966 167.636 C 442.947 167.011, 442.079 164.700, 441.036 162.500 C 439.403 159.055, 439.048 158.778, 438.479 160.500 M 49 223.138 L 49 249.276 63.250 248.758 C 79.709 248.161, 84.987 246.602, 91.089 240.536 C 94.159 237.485, 95.200 235.417, 96.463 229.861 C 97.325 226.071, 97.803 221.965, 97.526 220.735 C 97.248 219.506, 96.830 217.375, 96.598 216 C 95.902 211.894, 94.667 209.472, 91.441 205.894 C 85.435 199.231, 77.412 197.016, 59.250 197.006 L 49 197 49 223.138" stroke="none" fill="#3c3c3c" fill-rule="evenodd"/><path d="M 206.481 220.489 C 195.491 254.308, 186.271 281.983, 185.992 281.989 C 185.712 281.995, 179.275 269.574, 171.688 254.387 C 164.100 239.200, 157.677 226.990, 157.414 227.253 C 157.151 227.516, 151.133 245.640, 144.040 267.530 L 131.145 307.329 144.322 330.146 L 157.500 352.962 183.215 352.981 L 208.931 353 227.116 297.750 C 237.118 267.363, 245.461 242.956, 245.655 243.514 C 245.850 244.072, 253.611 268.822, 262.902 298.514 L 279.795 352.500 305.648 352.755 L 331.500 353.010 370.260 256.755 C 391.578 203.815, 409.016 160.155, 409.010 159.733 C 409.005 159.312, 397.283 159.087, 382.963 159.233 L 356.925 159.500 330.739 220.885 C 306.068 278.717, 304.486 282.103, 303.400 279.385 C 302.766 277.798, 294.241 250.063, 284.455 217.750 L 266.661 159 246.561 159 L 226.461 159 206.481 220.489 M 54.789 197.741 C 58.248 197.937, 63.648 197.936, 66.789 197.738 C 69.930 197.540, 67.100 197.380, 60.500 197.382 C 53.900 197.384, 51.330 197.546, 54.789 197.741 M 54.789 248.741 C 58.248 248.937, 63.648 248.936, 66.789 248.738 C 69.930 248.540, 67.100 248.380, 60.500 248.382 C 53.900 248.384, 51.330 248.546, 54.789 248.741" stroke="none" fill="#5c0ccc" fill-rule="evenodd"/>
</svg>